<svg fill="none" height="110" viewBox="0 0 115 110" width="115" xmlns="http://www.w3.org/2000/svg"><path d="m25.8603 92c-6.9339-.6821-12.1283-2.7648-15.6119-6.2485-6.2484-6.248-6.2484-16.3051-6.2484-36.4182v-2.6666c0-20.1133 0-30.1699 6.2484-36.4183s16.305-6.2484 36.4183-6.2484h21.3333c20.1131 0 30.1701 0 36.418 6.2484 6.249 6.2484 6.249 16.305 6.249 36.4183v2.6666c0 20.1131 0 30.1702-6.249 36.4182-6.2479 6.2485-16.3049 6.2485-36.418 6.2485-2.9893.0667-5.3701.2939-7.7088.8267-6.3915 1.4714-12.3099 4.7418-18.1586 7.5943-8.3337 4.063-12.5006 6.095-15.1156 4.193-5.0027-3.726-.1128-15.2705.983-20.614" fill="#def"/><g stroke-linecap="round" stroke-width="8"><path d="m25.8603 92c-6.9339-.6821-12.1283-2.7648-15.6119-6.2485-6.2484-6.248-6.2484-16.3051-6.2484-36.4182v-2.6666c0-20.1133 0-30.1699 6.2484-36.4183s16.305-6.2484 36.4183-6.2484h21.3333c20.1131 0 30.1701 0 36.418 6.2484 6.249 6.2484 6.249 16.305 6.249 36.4183v2.6666c0 20.1131 0 30.1702-6.249 36.4182-6.2479 6.2485-16.3049 6.2485-36.418 6.2485-2.9893.0667-5.3701.2939-7.7088.8267-6.3915 1.4714-12.3099 4.7418-18.1586 7.5943-8.3337 4.063-12.5006 6.095-15.1156 4.193-5.0027-3.726-.1128-15.2705.983-20.614" stroke="#76bdff"/><path d="m36 62.6667h42.6667m-42.6667-26.6667h21.3333" stroke="#0097fe" stroke-linejoin="round"/></g></svg>